<svg xmlns="http://www.w3.org/2000/svg" data-name="Layer 1" width="725.25071" height="558.31589" viewBox="0 0 725.25071 558.31589" xmlns:xlink="http://www.w3.org/1999/xlink"><path d="M451.84012,261.27121c-13.29093-1.12921-27.29237-2.19673-39.64337,1.38238s-21.91263,13.55674-16.91466,22.15112c5.18485,8.91573,21.54057,11.2539,35.36021,12.22988A3003.93819,3003.93819,0,0,0,930.68272,290.539c6.64277-.64424,14.25164-1.76268,17.36845-5.87175,3.36116-4.43121-.81886-10.15752-7.0675-12.67853s-13.84014-2.68393-21.07239-2.78033l-476.18806-6.34779" transform="translate(-237.37464 -170.84205)" fill="#a0fff0"/><path d="M447.471,396.05318c-13.29092-1.12922-27.29237-2.19674-39.64337,1.38238S385.915,410.99229,390.913,419.58667c5.18485,8.91573,21.54057,11.25391,35.36021,12.22988A3003.93712,3003.93712,0,0,0,926.31358,425.321c6.64277-.64424,14.25164-1.76268,17.36845-5.87175,3.36116-4.43121-.81886-10.15752-7.0675-12.67852s-13.84014-2.68393-21.07238-2.78034l-476.18807-6.34778" transform="translate(-237.37464 -170.84205)" fill="#a0fff0"/><path d="M438.40011,606.95082c-13.29092-1.12922-27.29237-2.19674-39.64336,1.38238s-21.91264,13.55673-16.91466,22.15111c5.18484,8.91573,21.54057,11.25391,35.36021,12.22988a3003.93821,3003.93821,0,0,0,500.04042-6.49557c6.64277-.64424,14.25163-1.76268,17.36844-5.87175,3.36116-4.43121-.81886-10.15752-7.06749-12.67853s-13.84014-2.68392-21.07239-2.78033l-476.18807-6.34778" transform="translate(-237.37464 -170.84205)" fill="#a0fff0"/><path d="M407.25713,251.74c174.33117-21.595,351.97889,2.87083,526.83438,11.11143,11.986,2.114-2.54238,13.01588-9.56825,10.35513a2912.761,2912.761,0,0,0-416.35135-2.047c-33.49545.04389-68.08819,9.57308-101.13816,4.81212-16.64244-4.27232-15.22939-32.86923,4.13819-28.77612-19.50087-4.45339-21.90053,24.86223-4.72936,29.75225,22.8465,6.02983,47.04651-.89484,70.47649-.21548A3533.17191,3533.17191,0,0,1,900.73418,283.801C1144.96222,238.20582,433.69309,224.2374,407.25713,251.74Z" transform="translate(-237.37464 -170.84205)"/><path d="M256.44609,245.88744c42.062-26.2667,50.73175,46.70445,9.97207,50.41781-46.025-3.19934-2.60319-67.17832-18.87918-46.50223-16.35572,15.94311-12.76464,46.61549,9.27136,55.63951C320.44305,326.37233,315.2069,199.4299,256.44609,245.88744Z" transform="translate(-237.37464 -170.84205)"/><path d="M407.34306,427.87523c174.33115-21.595,351.97875,2.87083,526.83414,11.11144,11.98618,2.11327-2.54237,13.01617-9.568,10.35512a2912.76726,2912.76726,0,0,0-416.35159-2.047c-33.49537.04391-68.088,9.57306-101.13792,4.81213-16.64262-4.27238-15.22952-32.86925,4.13819-28.77613C391.75711,418.877,389.357,448.193,406.52827,453.083c22.84665,6.03,47.04645-.89525,70.47649-.21549a3533.16115,3533.16115,0,0,1,423.81536,7.0687C1145.048,414.3412,433.7789,400.37248,407.34306,427.87523Z" transform="translate(-237.37464 -170.84205)"/><path d="M256.532,422.02269c42.06169-26.26675,50.73177,46.70432,9.97206,50.41782-46.02511-3.199-2.6035-67.17816-18.87917-46.50223-13.96771,13.94722-14.07327,39.40786,2.44322,51.59414C314.48032,516.6893,322.51293,373.30664,256.532,422.02269Z" transform="translate(-237.37464 -170.84205)"/><path d="M418.17363,604.01048c174.33115-21.595,351.97875,2.87084,526.83414,11.11144,11.98618,2.11327-2.54237,13.01617-9.568,10.35513a2912.76594,2912.76594,0,0,0-416.3516-2.047c-33.49536.04391-68.088,9.57305-101.13792,4.81212-16.64269-4.27242-15.22956-32.86919,4.1382-28.77613-19.50077-4.45377-21.90086,24.86225-4.72961,29.75226,22.84665,6.03,47.04645-.89524,70.47649-.21548a3533.15477,3533.15477,0,0,1,423.81535,7.06869C1155.87861,590.47646,444.60947,576.50773,418.17363,604.01048Z" transform="translate(-237.37464 -170.84205)"/><path d="M267.3626,598.158c42.06169-26.26676,50.73177,46.70431,9.97206,50.41781-46.02511-3.199-2.6035-67.17816-18.87917-46.50223-16.356,15.943-12.76472,46.61565,9.27136,55.63951C331.35978,678.64269,326.12289,551.70034,267.3626,598.158Z" transform="translate(-237.37464 -170.84205)"/><path d="M358.0601,729.158c10.00573-184.06426,7.74029-376.05048-2.61874-558.3159C351.17143,346.39525,351.51592,583.39134,358.0601,729.158Z" transform="translate(-237.37464 -170.84205)"/><path d="M268.49663,288.76488c11.56418-11.86027,8.8729-23.82093.12064-36.37054C263.52129,263.22826,262.70879,278.5764,268.49663,288.76488Z" transform="translate(-237.37464 -170.84205)"/><path d="M283.67485,269.79418c-10.51678-9.50979-16.35638-3.67923-25.92731,2.232C264.61541,278.48332,278.35623,278.13912,283.67485,269.79418Z" transform="translate(-237.37464 -170.84205)"/><path d="M268.1834,463.91722c11.564-11.85989,8.87253-23.82064.12063-36.37054C263.20805,438.38109,262.39531,453.72923,268.1834,463.91722Z" transform="translate(-237.37464 -170.84205)"/><path d="M283.36162,444.947c-10.51668-9.51033-16.35612-3.67912-25.92732,2.23148C264.3017,453.63615,278.043,453.29166,283.36162,444.947Z" transform="translate(-237.37464 -170.84205)"/><path d="M278.1834,639.06957c11.56383-11.8596,8.87274-23.8208.12063-36.37006C273.20805,613.53343,272.39531,628.88158,278.1834,639.06957Z" transform="translate(-237.37464 -170.84205)"/><path d="M293.36162,620.09935c-10.517-9.50993-16.35605-3.67882-25.92732,2.23149C274.30185,628.78877,288.043,628.44427,293.36162,620.09935Z" transform="translate(-237.37464 -170.84205)"/></svg>