<svg xmlns="http://www.w3.org/2000/svg" data-name="Layer 1" width="344.27374" height="460.81587" viewBox="0 0 344.27374 460.81587" xmlns:xlink="http://www.w3.org/1999/xlink"><path d="M510.72385,335.85346c21.52961-10.86743,50.96608-1.40263,62.12749,19.97605s2.10085,50.94208-19.12289,62.39537-50.90851,2.79867-62.65154-18.26614S486.92174,347.868,510.72385,335.85346Z" transform="translate(-427.86313 -219.59207)" fill="#a0fff0"/><path d="M689.12079,445.14211c8.27813,11.74471,17.82549,22.4655,27.56784,32.99884,14.93873,16.85952,31.3588,32.30329,47.2263,48.27032q4.07618,3.90553,8.22194,7.73831-3.18146-4.50456-6.37334-9.00168c-8.66363-13.07823-23.637-32.43334-27.80748-37.57531-7.94063-10.86618-28.52525-36.1097-33.08423-42.11661-20.30034-26.3774-25.79739-33.83542-46.48136-59.46322-9.95742-11.67587-19.16357-24.02823-29.88007-35.03116a26.54034,26.54034,0,0,0,5.06541-7.39764c5.0881-10.80423,3.93273-23.29817.85769-34.51115-1.62348-5.6084-3.8799-11.55736-8.90028-14.9699a14.48522,14.48522,0,0,0-5.0963-1.571c-.36391-4.34223-.70364-8.68651-.98681-13.03516-.84578-12.41013-1.38124-24.849-2.77885-37.21391-.86216-8.23068-1.35073-19.50869-11.02349-21.9867-5.39658-1.41556-10.96023-.31284-16.3743.43508-10.14682,1.62925-11.88937,1.948-21.71283,2.861-28.59037,1.96953-57.37685,2.86816-85.60182,8.19962-10.63166,1.871-22.68438,2.50508-30.41627,11.01084-1.14532,1.06867-2.22963,2.20163-3.286,3.35719a66.82062,66.82062,0,0,1,5.7404-3.85813c8.81135-5.65966,18.74049-3.79525,29.04136-4.40252,20.5396-1.06392,41.109-.20437,61.65712-1.0029a304.44134,304.44134,0,0,0,31.62523-2.02051c9.31592-.963,16.62993-2.81931,22.19917-3.05392A19.247,19.247,0,0,1,601.5,231.826c.34159.07135.68318.14651,1.021.23675.032.03451.06846.06465.10009.09972.06512.1094.14066.23722.24671.4175.03907.10744.06288.16661.09451.25042a10.97831,10.97831,0,0,1,.45954,1.67232c2.09158,11.852,3.17589,36.35035,4.43656,53.833,2.11875,23.1857,4.32456,46.37745,7.23923,69.47859,3.49588,25.216,3.38053,50.73112,5.36458,76.0778.87741,11.99179,2.51949,23.9246,2.99131,35.94495.39964,17.24492-.13953,32.97279-2.74722,46.14423-2.70443,12.10584-5.12048,20.72686-9.3561,23.2417-.106.044-.21917.09182-.38624.16829-2.72453.8056-1.98218.49871-7.23327.26856-11.54518-.74941-23.08291-1.63715-34.58939-2.85206-12.75189-1.11677-23.42933-3.64631-39.10371-5.37165-13.00679-1.31212-26.04446-2.31177-39.05348-3.61356-7.21169-.62364-13.13628-1.29575-16.29765-2.797-4.5787-2.80239-3.88175-2.26656-4.76065-13.12251-.59388-15.05372-1.4512-30.09087-2.4782-45.121-.94513-15.34526-1.75966-30.7066-3.34891-46.00237-1.72282-15.9209-4.03469-31.775-5.60979-47.71245-2.05176-25.19458-3.79506-50.41958-6.2286-75.58319-1.89957-18.5896-4.55-37.09743-6.24162-55.70862-1.8698,18.63323-2.10646,37.37493-2.32525,56.08584q-.163,7.95353-.17154,15.90722c-4.3361,2.481-8.45079,5.38635-11.01159,9.79119-7.06694,10.58534-6.255,24.66433,3.68194,33.13809a31.69632,31.69632,0,0,0,9.17192,5.3524c.38029,5.11638.88,10.221,1.41882,15.3219-5.50375,3.74538-10.80842,8.0198-13.19619,14.44515a32.89079,32.89079,0,0,0-.963,21.92883c1.76487,5.36951,6.124,9.43136,10.76562,12.42557a36.26668,36.26668,0,0,0,9.39443,4.02473c.45917,4.99946.86848,10.00384,1.13714,15.0219.73564,12.39189,1.58589,24.778,2.33345,37.16944a34.94868,34.94868,0,0,1-7.7557-5.58579c-8.04743-7.481-11.51578-19.79577-7.51309-32.00142,1.93083-5.43844,6.565-9.15294,10.53715-13.08912-5.11118,2.6408-10.51892,5.38384-13.73127,10.36766-8.35887,12.8399-3.62873,31.61751,10.18924,38.50119.32038.17517.65341.32382.98012.48615-4.65722,4.09544-9.44318,8.46986-11.46555,14.51-4.17907,10.4339,2.716,20.7411,12.38463,24.81355a22.12246,22.12246,0,0,0,8.4746,1.89884,3.09563,3.09563,0,0,1,.31331.00046c1.19631,5.64235,4.303,10.63074,9.86514,13.26437,7.81375,3.88464,16.82752,3.71041,25.32035,4.72987,11.13326,1.09333,22.28066,2.02888,33.42062,3.04369,10.12337,1.17631,20.50573,2.88239,34.08146,4.75927,15.42842,1.90534,30.9428,3.09327,46.45941,3.99255a17.2887,17.2887,0,0,0,12.97255-4.913c8.19478,9.69453,14.62357,18.49333,22.5482,28.70191,11.15075,14.11388,23.02523,27.62868,34.81116,41.20971,18.69993,21.64446,37.66293,43.27292,60.45672,60.755q1.64431,1.30342,3.31281,2.57549-2.61941-3.35379-5.2615-6.68981c-15.37931-18.93026-29.99692-40.62328-47.703-61.73778-10.96321-12.70138-23.42821-23.98069-35.59852-35.49554-10.69157-9.95268-20.99133-20.34387-32.38543-29.50667,4.12809-4.02688,6.7808-9.91193,8.50176-15.74945,5.45909-18.0348,6.36739-37.033,6.335-55.76546-.122-12.97814-1.87688-25.85367-2.921-38.77255-1.24877-15.39121-1.82106-30.82753-2.64638-46.24488-.47927-12.60929-2.00414-25.12314-3.56027-37.63243q.9377-.89317,1.82107-1.83873C648.98077,382.17147,666.23509,415.54083,689.12079,445.14211ZM443.82442,360.836a30.45773,30.45773,0,0,1-8.05189-8.963c-4.89833-8.52055-3.69942-18.75026,1.01993-28.091a31.69442,31.69442,0,0,1,6.73354-8.35655c.01935,13.66261.42606,27.32,1.45864,40.95249q.16632,2.821.37656,5.6377C444.84547,361.62787,444.33011,361.23763,443.82442,360.836Zm.69509,61.59461c-6.78675-6.36432-7.97115-12.49757-7.59607-22.07005a29.2467,29.2467,0,0,1,4.028-13.89983,55.75633,55.75633,0,0,1,5.97892-7.69635c1.77641,16.49486,4.08976,32.93744,5.67007,49.45184A37.43446,37.43446,0,0,1,444.51951,422.43056Zm13.99285,99.7022a29.43028,29.43028,0,0,1-8.45413-4.89275c-12.9733-11.06386-10.09658-21.973-1.01137-36.131a31.30213,31.30213,0,0,0,7.28462,2.51968q.41415,6.93462.771,13.8722c.29322,6.59261.47443,13.19284.98756,19.77326a27.15088,27.15088,0,0,0,.55592,4.908C458.60427,522.16672,458.56743,522.15267,458.51236,522.13276ZM626.37415,350.37657q-.36614-2.94524-.72634-5.89092c-1.7392-17.07152-3.70054-34.131-5.1495-51.23122a13.07705,13.07705,0,0,1,4.05441,2.47186,20.75787,20.75787,0,0,1,4.3666,9.68514c1.66032,7.9463,2.17493,14.26709,2.70295,23.19109a43.0899,43.0899,0,0,1-2.35391,16.25216A36.40424,36.40424,0,0,1,626.37415,350.37657Z" transform="translate(-427.86313 -219.59207)"/><path d="M528.79553,258.52271a118.3367,118.3367,0,0,0-41.49409,2.01763,204.85418,204.85418,0,0,0,33.33057-.65369c3.06685-.32494,6.12478-.748,9.1667-1.25017C529.46419,258.59983,529.13005,258.55992,528.79553,258.52271Z" transform="translate(-427.86313 -219.59207)"/><path d="M557.857,252.19188c-8.03589.19917-8.015,11.97207,0,12.193C565.89287,264.18572,565.872,252.41291,557.857,252.19188Z" transform="translate(-427.86313 -219.59207)"/><path d="M564.15442,356.31874a34.402,34.402,0,0,0-11.52992-17.97536c1.12449-3.52435,2.27353-7.04136,3.50891-10.52729a97.95376,97.95376,0,0,0-5.67677,8.91777,26.50042,26.50042,0,0,0-10.26961-4.178c-3.76567-.45629-7.82529-.9817-11.44955.40773-5.62133,2.6968-9.69658,7.93719-13.02428,13.09116a22.35732,22.35732,0,0,0-4.82838,4.91378c-6.59995,9.98905-4.33088,22.90458-.96,33.66081,5.295,18.79156,29.01457,39.12492,45.77958,20.21661,4.68735-5.5764,7.19978-12.59776,8.7559-19.62907C567.05234,373.88906,566.40191,365.6888,564.15442,356.31874Zm-8.68856,27.02708c-2.34051,8.35432-3.9718,12.61692-9.0934,17.4454-3.51263,2.88927-9.20206,4.38818-17.57023-1.91335a40.076,40.076,0,0,1-7.4796-6.867,59.33776,59.33776,0,0,1-5.56812-9.73676c-3.95432-9.47-7.36686-20.12554-3.12528-29.80286,2.12209-4.51936,6.21892-7.59654,9.63853-11.087-1.99892,1.459-4.1292,2.81243-6.117,4.32149a41.33513,41.33513,0,0,1,7.00332-6.11883c2.22032-1.54068,4.56419-3.19821,7.298-3.59524A23.23509,23.23509,0,0,1,547.401,342.498l-.00633.01265a127.98358,127.98358,0,0,0-10.77307,29.899,111.40366,111.40366,0,0,0-10.61492-12.33114c2.348,4.36381,4.751,8.6999,6.89429,13.17,1.401,2.28135,2.27428,7.90864,5.99938,6.07762,1.33733-.90421,1.65287-2.62638,2.19354-4.04855q1.14086-3.465,2.28842-6.92759c2.48414-7.48658,4.6907-15.0593,6.96126-22.6122a37.49623,37.49623,0,0,1,4.55824,7.61718,44.32411,44.32411,0,0,1,2.492,14.68236C557.42423,375.13439,557.13585,376.27367,555.46586,383.34582Z" transform="translate(-427.86313 -219.59207)"/></svg>