<svg xmlns="http://www.w3.org/2000/svg" data-name="Layer 1" width="432.98396" height="585.6623" viewBox="0 0 432.98396 585.6623" xmlns:xlink="http://www.w3.org/1999/xlink"><path d="M358.64961,333.43134C482.88508,317.82658,607.744,301.56911,732.5761,290.47043c52.7868,2.75979,48.73687,102.16025,43.83508,140.05529-7.75985,60.64477-26.29083,121.26271-18.96627,183.02426-.80046,18.59807,24.25108,53.71488-9.16514,50.79716a2773.30247,2773.30247,0,0,1-371.614,15.14337c-15.29556,2.75758-4.97625-10.57043-3.92306-19.90008,13.70571-51.52324,26.35527-103.87964,29.5843-157.19815,3.61946-60.20775-5.33229-123.14021-36.868-175.336,28.86218,50.59007,37.06332,111.26145,32.93664,169.7593-4.46241,64.20023-23.50333,128.01971-41.36114,190.02586a2563.87238,2563.87238,0,0,0,326.77092-4.27215c35.85088-8.72244,116.46727,11.56966,89.6216-49.93263-18.02882-77.17483,13.84517-154.369,16.54364-231.5789.728-44.53308-6.17744-128.89949-68.36257-118.88371C602.83251,296.32084,465.58518,315.89158,358.64961,333.43134Z" transform="translate(-357.03445 -104.46151)"/><path d="M697.95088,419.68671c-59.96441-15.38249-124.67-5.84176-179.05623,23.09669C575.46928,428.02976,640.1105,421.51,697.95088,419.68671Z" transform="translate(-357.03445 -104.46151)"/><path d="M694.2397,499.67548c-72.398.00093-145.84081,12.59524-214.57223,32.64506C547.81062,527.10419,638.99458,514.00751,694.2397,499.67548Z" transform="translate(-357.03445 -104.46151)"/><path d="M697.73323,597.90644c-72.71168-8.17632-148.42227-.28738-218.20385,18.6168C543.86662,612.35777,636.20491,606.08743,697.73323,597.90644Z" transform="translate(-357.03445 -104.46151)"/><path d="M558.83174,282.20478c15.835,1.95427,69.41107-23.72733,56.58373,1.02828-23.96,85.77271-18.52835,40.43928-60.43558.014,16.81689,24.934,31.10879,53.69383,42.99076,81.74448C623.14862,291.27478,670.95442,229.6214,558.83174,282.20478Z" transform="translate(-357.03445 -104.46151)"/><path d="M515.21884,269.26434a17.31689,17.31689,0,0,1-16.2956-29.21376c5.5787-5.419,14.68309-7.04054,18.47235-13.83237,2.29218-4.1085,2.00481-9.13505,1.32481-13.79031-2.22562-15.23655-7.91972-29.742-11.19507-44.78789s-3.91138-31.55009,3.4597-45.06944,24.784-22.35732,38.81423-16.01242c13.57963,6.14112,18.52136,22.55624,21.95582,37.0588l8.90374,37.59753a18.55307,18.55307,0,0,0,2.63162,6.86595c5.37695,7.32022,16.95345,3.31835,25.74357,5.60554,11.89866,3.096,16.94194,18.63124,12.69505,30.16933s-14.86777,19.45858-25.63762,25.38934c-26.06225,14.352-56.03317,20.965-85.78577,21.02614" transform="translate(-357.03445 -104.46151)" fill="#a0fff0"/><path d="M539.30586,282.362c48.66109,15.43725,183.506-59.06695,83.66481-83.53989-21.49419-28.12591-21.83907-130.53592-83.99838-71.05405-30.02179,36.62894,25.8179,84.56658,1.738,117.226-19.57058,5.60038-20.92444,36.38936,2.51249,32.30663-45.94646-9.894,19.53817-30.34852,10.16539-52.4468-4.49228-32.34443-34.05051-92.46006,15.21191-102.11682,33.30319,6.48457,25.41112,54.87954,38.33954,79.21348C711.11766,229.53809,589.37471,283.55749,539.30586,282.362Z" transform="translate(-357.03445 -104.46151)"/><path d="M596.82148,373.68964c-.78231-4.84629,8.55627-9.11147,3.96-10.67134-.53334,7.70456-12.57042,5.16389-6.09578,11.26159a5.94906,5.94906,0,0,1,6.33035-2.35583c-2.44408-2.33175-2.24527-.74146-4.49647.41263,1.844,3.63229,1.54386,4.69851,6.51513,2.78587,1.366.4086-1.30437,1.61494.289.38747-.83041-.18031-4.04269-5.024-3.82015-2.18-1.35116-.82661-1.48427-1.80014-2.45278-2.84562.56991,1.00533-.97841,2.84064.38042,2.208,7.99081,8.194.2309-7.618.786-2.77466,2.08624.2463,4.73111.16123,2.90964-1.96411-6.052-7.12251-3.66935.16392-10.15835-.27612,3.5648,6.11257.54212.21977,3.2285-3.05253,2.94136-6.33609,15.3498-6.07239,16.89925.89413-.585,9.96244-13.75936,18.13725-22.54367,13.10438-2.827-11.97828,4.13409-22.81307-2.787-4.19922.98247,16.67318,27.90948,7.16211,30.85717-4.93,6.29533-24.72739-38.19873-21.93706-34.11767,2.511,5.77932,16.04487,31.35866,1.10543,25.30257-14.13849-17.03123-7.9413-27.282,23.14824-7.29714,21.6831,26.35814-14.0156-13.29345-26.99467-10.64-3.62512,13.441,17.7394,25.1196-18.78206,5.16326-8.244-2.29437,1.0439-2.10394,9.34954-1.22263,7.29165-.26-1.58891.62341-3.42318,1.09263-4.91255,4.15558-2.53851,5.55111,3.92585,10.71582-4.14535,10.56993,2.54666-14.53564-8.58163-15.44806,13.34244,28.68052,7.87723,11.10547-34.4854-2.211-2.84027,9.09036-.193,16.703-7.00556,15.45963-16.29209C599.34112,363.4868,596.3004,368.84784,596.82148,373.68964Z" transform="translate(-357.03445 -104.46151)"/></svg>